<?xml version="1.0" standalone="no"?><!DOCTYPE svg PUBLIC "-//W3C//DTD SVG 1.1//EN" "http://www.w3.org/Graphics/SVG/1.1/DTD/svg11.dtd"><svg t="1573031673193" class="icon" viewBox="0 0 1024 1024" version="1.1" xmlns="http://www.w3.org/2000/svg" p-id="3828" data-spm-anchor-id="a313x.7781069.0.i18" xmlns:xlink="http://www.w3.org/1999/xlink" width="32" height="32"><defs><style type="text/css"></style></defs><path d="M204.8 204.8m-204.8 0a204.8 204.8 0 1 0 409.6 0 204.8 204.8 0 1 0-409.6 0Z" fill="#f3f7f6" p-id="3829" data-spm-anchor-id="a313x.7781069.0.i12" class="selected"></path><path d="M819.2 204.8m-204.8 0a204.8 204.8 0 1 0 409.6 0 204.8 204.8 0 1 0-409.6 0Z" fill="#8cbdb1" p-id="3830" data-spm-anchor-id="a313x.7781069.0.i15" class="selected"></path><path d="M819.2 819.2m-204.8 0a204.8 204.8 0 1 0 409.6 0 204.8 204.8 0 1 0-409.6 0Z" fill="#00af92" p-id="3831" data-spm-anchor-id="a313x.7781069.0.i14" class="selected"></path><path d="M204.8 819.2m-204.8 0a204.8 204.8 0 1 0 409.6 0 204.8 204.8 0 1 0-409.6 0Z" fill="#55a994" p-id="3832" data-spm-anchor-id="a313x.7781069.0.i16" class="selected"></path></svg>